#!OML:ASF G:\JayActor3\Patient Classification 1\Patient 1\Session 6\male.ASF
:FULLY-SPECIFIED
:DEGREES
568
root 31.0281 16.1974 -4.69964 181.197 -29.3658 -177.522
lowerback -6.55908 -6.74832 0.563051
upperback -2.47863 -9.58616 6.62771
thorax 2.1304 -4.97366 5.69686
lowerneck 0.435785 11.196 13.2108
upperneck 1.34136 15.2767 -14.3854
head 2.47226 7.54422 -5.87853
rclavicle 5.06901e-014 -4.77083e-014
rhumerus -45.227 -8.20467 -69.1334
rradius 31.4509
rwrist -5.58562
rhand -20.1382 -6.84449
rfingers 7.12502
rthumb 6.20643 -36.7336
lclavicle 5.06901e-014 -4.77083e-014
lhumerus -37.5244 16.6127 87.5587
lradius 17.5205
lwrist 11.5656
lhand -9.79196 9.75671
lfingers 7.12502
lthumb 16.184 39.1011
rfemur -23.6874 9.2216 28.379
rtibia 32.4556
rfoot -13.0671 -0.653419
rtoes 7.4922
lfemur 26.1472 8.55718 -17.6779
ltibia 14.1518
lfoot 18.9005 0.06927
ltoes -6.42809
569
root 30.9646 16.1968 -4.80533 180.731 -29.5716 -177.13
lowerback -6.38963 -6.70691 0.94997
upperback -2.4274 -9.55651 6.64931
thorax 2.02912 -4.95991 5.53155
lowerneck 0.378119 11.1217 13.188
upperneck 1.39931 15.1713 -14.2422
head 2.47038 7.49276 -5.83628
rclavicle -1.32192e-014 -1.59028e-015
rhumerus -44.9458 -8.2352 -69.5078
rradius 31.5955
rwrist -5.67233
rhand -20.1234 -6.79564
rfingers 7.12502
rthumb 6.22064 -36.6843
lclavicle -1.32192e-014 -1.59028e-015
lhumerus -38.0788 16.7661 87.3214
lradius 17.6328
lwrist 11.7505
lhand -9.66338 9.86994
lfingers 7.12502
lthumb 16.3078 39.2042
rfemur -22.8136 8.74807 28.9006
rtibia 32.3475
rfoot -13.1598 -0.395702
rtoes 7.99963
lfemur 24.1538 8.66094 -16.9362
ltibia 18.6342
lfoot 19.2512 -0.25687
ltoes -4.7185
570
root 30.9015 16.1945 -4.91042 180.229 -29.8076 -176.678
lowerback -6.22008 -6.66261 1.38222
upperback -2.36641 -9.52616 6.67631
thorax 1.93191 -4.94642 5.34699
lowerneck 0.30267 11.0399 13.1708
upperneck 1.45552 15.0538 -14.0995
head 2.46989 7.43471 -5.79496
rclavicle -1.10624e-013 4.92986e-014
rhumerus -44.6501 -8.28099 -69.8852
rradius 31.7205
rwrist -5.73225
rhand -20.07 -6.75782
rfingers 7.12502
rthumb 6.27224 -36.645
lclavicle -1.10624e-013 4.92986e-014
lhumerus -38.5957 16.8551 87.1069
lradius 17.7818
lwrist 11.9511
lhand -9.61178 9.98002
lfingers 7.12502
lthumb 16.3575 39.3102
rfemur -21.9245 8.21954 29.4661
rtibia 32.2063
rfoot -13.2545 -0.131251
rtoes 8.49892
lfemur 22.3853 8.70983 -16.1424
ltibia 22.6369
lfoot 19.9288 -0.554771
ltoes -3.00316
571
root 30.8404 16.1902 -5.01518 179.717 -30.0543 -176.182
lowerback -6.0618 -6.61097 1.82315
upperback -2.30192 -9.48798 6.71593
thorax 1.8451 -4.92998 5.1701
lowerneck 0.216546 10.9501 13.1458
upperneck 1.50375 14.9236 -13.9576
head 2.4668 7.36995 -5.75335
rclavicle 3.20043e-014 -3.18055e-014
rhumerus -44.3422 -8.32022 -70.264
rradius 31.8353
rwrist -5.78282
rhand -19.9739 -6.73165
rfingers 7.12502
rthumb 6.36506 -36.616
lclavicle 3.20043e-014 -3.18055e-014
lhumerus -39.0657 16.8755 86.9309
lradius 17.9568
lwrist 12.1584
lhand -9.66214 10.0888
lfingers 7.12502
lthumb 16.309 39.423
rfemur -21.0528 7.69323 30.0586
rtibia 32.0389
rfoot -13.3462 0.105158
rtoes 8.96898
lfemur 20.6855 8.69719 -15.3303
ltibia 26.3895
lfoot 20.7733 -0.812986
ltoes -1.4071
572
root 30.7822 16.1844 -5.11963 179.216 -30.3021 -175.666
lowerback -5.91429 -6.54844 2.23605
upperback -2.23798 -9.43461 6.76802
thorax 1.76958 -4.90676 5.02134
lowerneck 0.124875 10.851 13.1158
upperneck 1.53656 14.7788 -13.8273
head 2.45895 7.29763 -5.71571
rclavicle -8.13029e-014 -2.06736e-014
rhumerus -44.0255 -8.34544 -70.6498
rradius 31.9445
rwrist -5.83754
rhand -19.864 -6.71351
rfingers 7.12502
rthumb 6.47111 -36.5947
lclavicle -8.13029e-014 -2.06736e-014
lhumerus -39.4831 16.8311 86.7968
lradius 18.1465
lwrist 12.3519
lhand -9.82748 10.1622
lfingers 7.12502
lthumb 16.1498 39.5094
rfemur -20.2165 7.21856 30.6588
rtibia 31.8513
rfoot -13.4392 0.272521
rtoes 9.39085
lfemur 18.9793 8.61631 -14.5321
ltibia 29.9901
lfoot 21.5911 -0.997012
ltoes -0.0382499
573
root 30.7282 16.1776 -5.22319 178.735 -30.5535 -175.136
lowerback -5.75405 -6.47785 2.59663
upperback -2.18767 -9.36738 6.84163
thorax 1.68436 -4.87791 4.92673
lowerneck 0.0340016 10.7459 13.0785
upperneck 1.55908 14.6252 -13.708
head 2.44738 7.22071 -5.68125
rclavicle -1.47101e-014 -6.99722e-014
rhumerus -43.7108 -8.34221 -71.0314
rradius 32.055
rwrist -5.90287
rhand -19.7512 -6.69616
rfingers 7.12502
rthumb 6.57996 -36.5739
lclavicle -1.47101e-014 -6.99722e-014
lhumerus -39.8534 16.7538 86.6912
lradius 18.3457
lwrist 12.5518
lhand -10.0467 10.2149
lfingers 7.12502
lthumb 15.9387 39.5791
rfemur -19.4266 6.82369 31.2638
rtibia 31.6479
rfoot -13.5375 0.340793
rtoes 9.76398
lfemur 17.2266 8.46538 -13.7546
ltibia 33.4865
lfoot 22.1824 -1.05481
ltoes 1.17912
574
root 30.6777 16.1702 -5.32511 178.257 -30.8086 -174.594
lowerback -5.56151 -6.39752 2.91557
upperback -2.14692 -9.2827 6.93122
thorax 1.57991 -4.84142 4.87706
lowerneck -0.0502701 10.6353 13.0307
upperneck 1.56713 14.4637 -13.598
head 2.42967 7.13989 -5.64937
rclavicle -4.31363e-014 4.92986e-014
rhumerus -43.4016 -8.29704 -71.4158
rradius 32.1713
rwrist -6.00553
rhand -19.657 -6.6872
rfingers 7.12502
rthumb 6.67091 -36.5621
lclavicle -4.31363e-014 4.92986e-014
lhumerus -40.1755 16.6676 86.5914
lradius 18.5408
lwrist 12.7573
lhand -10.2806 10.1876
lfingers 7.12502
lthumb 15.7134 39.5696
rfemur -18.6619 6.49947 31.8742
rtibia 31.4286
rfoot -13.6401 0.316988
rtoes 10.1035
lfemur 15.4351 8.24764 -13.0001
ltibia 36.9031
lfoot 22.359 -1.04593
ltoes 1.92639
575
root 30.6299 16.1615 -5.42452 177.756 -31.0757 -174.026
lowerback -5.32164 -6.30695 3.22418
upperback -2.11225 -9.17986 7.03087
thorax 1.44555 -4.79675 4.85087
lowerneck -0.124619 10.5161 12.9825
upperneck 1.56209 14.2909 -13.4962
head 2.40586 7.05373 -5.62159
rclavicle -2.50469e-014 7.95139e-014
rhumerus -43.1033 -8.2259 -71.7988
rradius 32.286
rwrist -6.10982
rhand -19.5995 -6.67688
rfingers 7.12502
rthumb 6.72642 -36.55
lclavicle -2.50469e-014 7.95139e-014
lhumerus -40.4547 16.6062 86.4607
lradius 18.731
lwrist 12.982
lhand -10.4119 10.111
lfingers 7.12502
lthumb 15.587 39.5029
rfemur -17.9016 6.19846 32.5023
rtibia 31.1916
rfoot -13.739 0.235277
rtoes 10.426
lfemur 13.6282 7.96961 -12.2528
ltibia 40.2448
lfoot 22.0064 -1.00295
ltoes 2.15769
576
root 30.5835 16.1513 -5.52056 177.206 -31.358 -173.409
lowerback -5.02714 -6.20882 3.56276
upperback -2.07763 -9.06423 7.14082
thorax 1.27784 -4.74687 4.82654
lowerneck -0.192593 10.3935 12.9361
upperneck 1.54518 14.1135 -13.4041
head 2.37808 6.96547 -5.59786
rclavicle 1.36565e-013 -3.49861e-014
rhumerus -42.8073 -8.12062 -72.181
rradius 32.395
rwrist -6.21436
rhand -19.5549 -6.64906
rfingers 7.12502
rthumb 6.76955 -36.5208
lclavicle 1.36565e-013 -3.49861e-014
lhumerus -40.6894 16.5742 86.3015
lradius 18.9175
lwrist 13.2087
lhand -10.4686 9.99235
lfingers 7.12502
lthumb 15.5324 39.3885
rfemur -17.127 5.87468 33.1664
rtibia 30.9295
rfoot -13.8239 0.135977
rtoes 10.7543
lfemur 11.8249 7.64238 -11.4867
ltibia 43.5105
lfoot 21.1161 -0.992081
ltoes 1.87291
